# xmcd
#
# Track frame offsets:
#	150
#	16190
#	27062
#	43344
#	57068
#	72942
#	86278
#	100938
#	117047
#	129461
#	145097
#	163247
#	181523
#	199540
#
# Disc length: 2895
#
# Revision: 2
# Processed by: cddbd v1.5.1PL0 Copyright (c) Steve Scherf et al.
# Submitted via: audiograbber 1.82.02
# Normalized: r1:DSETVAR1
#
DISCID=ac0b4d0e
DTITLE=Various Artist - Hot Hits Country Vol. 84
DYEAR=1998
DGENRE=Country
TTITLE0=The Wilkinsons - Fly (The Angel Song)
TTITLE1=Diamond Rio - Unbelievable
TTITLE2=Sara Evans - No Place That Far
TTITLE3=Michael Peterson - By The Book
TTITLE4=Linda Davis - I'm Yours
TTITLE5=Sammy Kershaw - One Day Left To Live
TTITLE6=Clint Daniels - When I grow Up
TTITLE7=Lari White - Take Me
TTITLE8=Brandy Seals - Whole Lotta Hurt
TTITLE9=Jenny Simpson - Ticket Out Of Kansas
TTITLE10=Monty Holmes - Alone
TTITLE11=Mindy McCready - Let's Talk About Love
TTITLE12=The Warren Brothers - Guilty
TTITLE13=Patty Loveless - Like Water Into Wine
EXTD=
EXTT0=
EXTT1=
EXTT2=
EXTT3=
EXTT4=
EXTT5=
EXTT6=
EXTT7=
EXTT8=
EXTT9=
EXTT10=
EXTT11=
EXTT12=
EXTT13=
PLAYORDER=
